<?xml version="1.0" encoding="UTF-8" standalone="no"?>
<!DOCTYPE svg PUBLIC "-//W3C//DTD SVG 1.1//EN"
 "http://www.w3.org/Graphics/SVG/1.1/DTD/svg11.dtd">
<!-- Generated by graphviz version 2.40.1 (20161225.0304)
 -->
<!-- Title: G Pages: 1 -->
<svg width="294pt" height="137pt"
 viewBox="0.00 0.00 294.00 137.00" xmlns="http://www.w3.org/2000/svg" xmlns:xlink="http://www.w3.org/1999/xlink">
<g id="graph0" class="graph" transform="scale(1 1) rotate(0) translate(4 133)">
<title>G</title>
<polygon fill="#ffffff" stroke="transparent" points="-4,4 -4,-133 290,-133 290,4 -4,4"/>
<g id="clust1" class="cluster">
<title>cluster_na66d0353478e446ebc83f841ca204eb2</title>
<g id="a_clust1"><a xlink:title="cl">
<path fill="#ffc0cb" stroke="#000000" d="M22,-46C22,-46 266,-46 266,-46 272,-46 278,-52 278,-58 278,-58 278,-109 278,-109 278,-115 272,-121 266,-121 266,-121 22,-121 22,-121 16,-121 10,-115 10,-109 10,-109 10,-58 10,-58 10,-52 16,-46 22,-46"/>
<text text-anchor="middle" x="144" y="-105.8" font-family="Times,serif" font-size="14.00" fill="#000000">cl</text>
</a>
</g>
</g>
<!-- n79b1f8ca98404bb7b6c233860813a782 -->
<g id="node1" class="node">
<title>n79b1f8ca98404bb7b6c233860813a782</title>
<g id="a_node1"><a xlink:title="I have a tooltip!">
<path fill="#88ffaf" fill-opacity="0.254902" stroke="#000000" d="M78,-36C78,-36 12,-36 12,-36 6,-36 0,-30 0,-24 0,-24 0,-12 0,-12 0,-6 6,0 12,0 12,0 78,0 78,0 84,0 90,-6 90,-12 90,-12 90,-24 90,-24 90,-30 84,-36 78,-36"/>
<text text-anchor="middle" x="45" y="-14.3" font-family="Times,serif" font-size="14.00" fill="#000000">Check tooltip</text>
</a>
</g>
</g>
<!-- n14db4780dd4a43dfb64198add839c9bc -->
<g id="node2" class="node">
<title>n14db4780dd4a43dfb64198add839c9bc</title>
<g id="a_node2"><a xlink:title="a">
<path fill="#2686f5" fill-opacity="0.156863" stroke="#000000" d="M60,-90C60,-90 30,-90 30,-90 24,-90 18,-84 18,-78 18,-78 18,-66 18,-66 18,-60 24,-54 30,-54 30,-54 60,-54 60,-54 66,-54 72,-60 72,-66 72,-66 72,-78 72,-78 72,-84 66,-90 60,-90"/>
<text text-anchor="middle" x="45" y="-68.3" font-family="Times,serif" font-size="14.00" fill="#000000">a</text>
</a>
</g>
</g>
<!-- n17c736831e114832820bf073ae1a63de -->
<g id="node3" class="node">
<title>n17c736831e114832820bf073ae1a63de</title>
<g id="a_node3"><a xlink:title="a">
<path fill="#2686f5" fill-opacity="0.156863" stroke="#000000" d="M168,-90C168,-90 138,-90 138,-90 132,-90 126,-84 126,-78 126,-78 126,-66 126,-66 126,-60 132,-54 138,-54 138,-54 168,-54 168,-54 174,-54 180,-60 180,-66 180,-66 180,-78 180,-78 180,-84 174,-90 168,-90"/>
<text text-anchor="middle" x="153" y="-68.3" font-family="Times,serif" font-size="14.00" fill="#000000">a</text>
</a>
</g>
</g>
<!-- n14db4780dd4a43dfb64198add839c9bc&#45;&gt;n17c736831e114832820bf073ae1a63de -->
<g id="edge1" class="edge">
<title>n14db4780dd4a43dfb64198add839c9bc&#45;&gt;n17c736831e114832820bf073ae1a63de</title>
<path fill="none" stroke="#000000" d="M72.253,-72C85.4273,-72 101.4432,-72 115.7267,-72"/>
<polygon fill="#000000" stroke="#000000" points="115.7558,-75.5001 125.7558,-72 115.7557,-68.5001 115.7558,-75.5001"/>
</g>
<!-- n34954e259e6442548971df31d2309de5 -->
<g id="node4" class="node">
<title>n34954e259e6442548971df31d2309de5</title>
<g id="a_node4"><a xlink:title="b">
<path fill="#d9da7d" fill-opacity="0.160784" stroke="#000000" d="M258,-90C258,-90 228,-90 228,-90 222,-90 216,-84 216,-78 216,-78 216,-66 216,-66 216,-60 222,-54 228,-54 228,-54 258,-54 258,-54 264,-54 270,-60 270,-66 270,-66 270,-78 270,-78 270,-84 264,-90 258,-90"/>
<text text-anchor="middle" x="243" y="-68.3" font-family="Times,serif" font-size="14.00" fill="#000000">b</text>
</a>
</g>
</g>
<!-- n17c736831e114832820bf073ae1a63de&#45;&gt;n34954e259e6442548971df31d2309de5 -->
<g id="edge2" class="edge">
<title>n17c736831e114832820bf073ae1a63de&#45;&gt;n34954e259e6442548971df31d2309de5</title>
<path fill="none" stroke="#000000" d="M180.003,-72C188.0277,-72 196.9665,-72 205.5309,-72"/>
<polygon fill="#000000" stroke="#000000" points="205.7051,-75.5001 215.705,-72 205.705,-68.5001 205.7051,-75.5001"/>
</g>
</g>
</svg>
