<?xml version="1.0" encoding="UTF-8" standalone="no"?>
<!DOCTYPE svg PUBLIC "-//W3C//DTD SVG 1.1//EN"
 "http://www.w3.org/Graphics/SVG/1.1/DTD/svg11.dtd">
<!-- Generated by graphviz version 2.40.1 (20161225.0304)
 -->
<!-- Title: G Pages: 1 -->
<svg width="454pt" height="99pt"
 viewBox="0.00 0.00 454.00 99.00" xmlns="http://www.w3.org/2000/svg" xmlns:xlink="http://www.w3.org/1999/xlink">
<g id="graph0" class="graph" transform="scale(1 1) rotate(0) translate(4 95)">
<title>G</title>
<polygon fill="#ffffff" stroke="transparent" points="-4,4 -4,-95 450,-95 450,4 -4,4"/>
<g id="clust1" class="cluster">
<title>cluster_n0469250ff4894294b1b9f2fe397e9b81</title>
<g id="a_clust1"><a xlink:title="block1">
<path fill="#555555" fill-opacity="0.133333" stroke="#000000" d="M20,-8C20,-8 246,-8 246,-8 252,-8 258,-14 258,-20 258,-20 258,-71 258,-71 258,-77 252,-83 246,-83 246,-83 20,-83 20,-83 14,-83 8,-77 8,-71 8,-71 8,-20 8,-20 8,-14 14,-8 20,-8"/>
<text text-anchor="middle" x="133" y="-67.8" font-family="Times,serif" font-size="14.00" fill="#000000">block1</text>
</a>
</g>
</g>
<g id="clust2" class="cluster">
<title>cluster_n30e93b9c79ef405391fa4d3fa4837070</title>
<g id="a_clust2"><a xlink:title="block2">
<path fill="#555555" fill-opacity="0.133333" stroke="#000000" d="M290,-8C290,-8 426,-8 426,-8 432,-8 438,-14 438,-20 438,-20 438,-71 438,-71 438,-77 432,-83 426,-83 426,-83 290,-83 290,-83 284,-83 278,-77 278,-71 278,-71 278,-20 278,-20 278,-14 284,-8 290,-8"/>
<text text-anchor="middle" x="358" y="-67.8" font-family="Times,serif" font-size="14.00" fill="#000000">block2</text>
</a>
</g>
</g>
<!-- n85051b3884494047afabef9b20ffcbbc -->
<g id="node1" class="node">
<title>n85051b3884494047afabef9b20ffcbbc</title>
<g id="a_node1"><a xlink:title="conv">
<path fill="#78ffb8" fill-opacity="0.474510" stroke="#000000" d="M58,-52C58,-52 28,-52 28,-52 22,-52 16,-46 16,-40 16,-40 16,-28 16,-28 16,-22 22,-16 28,-16 28,-16 58,-16 58,-16 64,-16 70,-22 70,-28 70,-28 70,-40 70,-40 70,-46 64,-52 58,-52"/>
<text text-anchor="middle" x="43" y="-30.3" font-family="Times,serif" font-size="14.00" fill="#000000">conv</text>
</a>
</g>
</g>
<!-- nb46d91b3f6ef455595413105c4958be0 -->
<g id="node2" class="node">
<title>nb46d91b3f6ef455595413105c4958be0</title>
<g id="a_node2"><a xlink:title="conv">
<path fill="#78ffb8" fill-opacity="0.474510" stroke="#000000" d="M148,-52C148,-52 118,-52 118,-52 112,-52 106,-46 106,-40 106,-40 106,-28 106,-28 106,-22 112,-16 118,-16 118,-16 148,-16 148,-16 154,-16 160,-22 160,-28 160,-28 160,-40 160,-40 160,-46 154,-52 148,-52"/>
<text text-anchor="middle" x="133" y="-30.3" font-family="Times,serif" font-size="14.00" fill="#000000">conv</text>
</a>
</g>
</g>
<!-- n85051b3884494047afabef9b20ffcbbc&#45;&gt;nb46d91b3f6ef455595413105c4958be0 -->
<g id="edge1" class="edge">
<title>n85051b3884494047afabef9b20ffcbbc&#45;&gt;nb46d91b3f6ef455595413105c4958be0</title>
<path fill="none" stroke="#000000" d="M70.003,-34C78.0277,-34 86.9665,-34 95.5309,-34"/>
<polygon fill="#000000" stroke="#000000" points="95.7051,-37.5001 105.705,-34 95.705,-30.5001 95.7051,-37.5001"/>
</g>
<!-- ne8ee1e884f834b668b92405c0286a6ff -->
<g id="node3" class="node">
<title>ne8ee1e884f834b668b92405c0286a6ff</title>
<g id="a_node3"><a xlink:title="lin">
<path fill="#fcb763" fill-opacity="0.215686" stroke="#000000" d="M238,-52C238,-52 208,-52 208,-52 202,-52 196,-46 196,-40 196,-40 196,-28 196,-28 196,-22 202,-16 208,-16 208,-16 238,-16 238,-16 244,-16 250,-22 250,-28 250,-28 250,-40 250,-40 250,-46 244,-52 238,-52"/>
<text text-anchor="middle" x="223" y="-30.3" font-family="Times,serif" font-size="14.00" fill="#000000">lin</text>
</a>
</g>
</g>
<!-- nb46d91b3f6ef455595413105c4958be0&#45;&gt;ne8ee1e884f834b668b92405c0286a6ff -->
<g id="edge2" class="edge">
<title>nb46d91b3f6ef455595413105c4958be0&#45;&gt;ne8ee1e884f834b668b92405c0286a6ff</title>
<path fill="none" stroke="#000000" d="M160.003,-34C168.0277,-34 176.9665,-34 185.5309,-34"/>
<polygon fill="#000000" stroke="#000000" points="185.7051,-37.5001 195.705,-34 185.705,-30.5001 185.7051,-37.5001"/>
</g>
<!-- n865b150ec20943f4a578711d5431daea -->
<g id="node4" class="node">
<title>n865b150ec20943f4a578711d5431daea</title>
<g id="a_node4"><a xlink:title="conv">
<path fill="#78ffb8" fill-opacity="0.474510" stroke="#000000" d="M328,-52C328,-52 298,-52 298,-52 292,-52 286,-46 286,-40 286,-40 286,-28 286,-28 286,-22 292,-16 298,-16 298,-16 328,-16 328,-16 334,-16 340,-22 340,-28 340,-28 340,-40 340,-40 340,-46 334,-52 328,-52"/>
<text text-anchor="middle" x="313" y="-30.3" font-family="Times,serif" font-size="14.00" fill="#000000">conv</text>
</a>
</g>
</g>
<!-- ne8ee1e884f834b668b92405c0286a6ff&#45;&gt;n865b150ec20943f4a578711d5431daea -->
<g id="edge4" class="edge">
<title>ne8ee1e884f834b668b92405c0286a6ff&#45;&gt;n865b150ec20943f4a578711d5431daea</title>
<path fill="none" stroke="#000000" d="M257.9967,-34C263.7458,-34 269.7244,-34 275.5309,-34"/>
<polygon fill="#000000" stroke="#000000" points="268.0001,-37.5004 278,-34 267.9999,-30.5004 268.0001,-37.5004"/>
</g>
<!-- n135d4aadc4c04081bc2cc7a2e03780eb -->
<g id="node5" class="node">
<title>n135d4aadc4c04081bc2cc7a2e03780eb</title>
<g id="a_node5"><a xlink:title="lin">
<path fill="#fcb763" fill-opacity="0.215686" stroke="#000000" d="M418,-52C418,-52 388,-52 388,-52 382,-52 376,-46 376,-40 376,-40 376,-28 376,-28 376,-22 382,-16 388,-16 388,-16 418,-16 418,-16 424,-16 430,-22 430,-28 430,-28 430,-40 430,-40 430,-46 424,-52 418,-52"/>
<text text-anchor="middle" x="403" y="-30.3" font-family="Times,serif" font-size="14.00" fill="#000000">lin</text>
</a>
</g>
</g>
<!-- ne8ee1e884f834b668b92405c0286a6ff&#45;&gt;n135d4aadc4c04081bc2cc7a2e03780eb -->
<g id="edge5" class="edge">
<title>ne8ee1e884f834b668b92405c0286a6ff&#45;&gt;n135d4aadc4c04081bc2cc7a2e03780eb</title>
<path fill="none" stroke="#000000" d="M257.9963,-13.9143C264.4609,-11.0537 271.2928,-8.5575 278,-7 304.8413,-.7669 313.0072,-1.4595 340,-7 348.8927,-8.8253 358.0801,-11.9605 366.5968,-15.4627"/>
<polygon fill="#000000" stroke="#000000" points="365.3116,-18.7207 375.876,-19.5226 368.1175,-12.3077 365.3116,-18.7207"/>
</g>
<!-- n865b150ec20943f4a578711d5431daea&#45;&gt;n135d4aadc4c04081bc2cc7a2e03780eb -->
<g id="edge3" class="edge">
<title>n865b150ec20943f4a578711d5431daea&#45;&gt;n135d4aadc4c04081bc2cc7a2e03780eb</title>
<path fill="none" stroke="#000000" d="M340.003,-34C348.0277,-34 356.9665,-34 365.5309,-34"/>
<polygon fill="#000000" stroke="#000000" points="365.7051,-37.5001 375.705,-34 365.705,-30.5001 365.7051,-37.5001"/>
</g>
</g>
</svg>
