<?xml version="1.0" encoding="UTF-8" standalone="no"?>
<!DOCTYPE svg PUBLIC "-//W3C//DTD SVG 1.1//EN"
 "http://www.w3.org/Graphics/SVG/1.1/DTD/svg11.dtd">
<!-- Generated by graphviz version 2.40.1 (20161225.0304)
 -->
<!-- Title: G Pages: 1 -->
<svg width="454pt" height="103pt"
 viewBox="0.00 0.00 454.00 102.93" xmlns="http://www.w3.org/2000/svg" xmlns:xlink="http://www.w3.org/1999/xlink">
<g id="graph0" class="graph" transform="scale(1 1) rotate(0) translate(4 98.9302)">
<title>G</title>
<polygon fill="#ffffff" stroke="transparent" points="-4,4 -4,-98.9302 450,-98.9302 450,4 -4,4"/>
<g id="clust1" class="cluster">
<title>cluster_n7ec931ce9f214ec19a25dba42b47f2af</title>
<g id="a_clust1"><a xlink:title="Sequential(layers=[Conv2d(name=&#39;conv&#39;, n_filters=5), Linear(name=&#39;lin&#39;, n_filters=3)], name=&#39;block1&#39;)">
<path fill="#555555" fill-opacity="0.133333" stroke="#000000" d="M20,-11.9302C20,-11.9302 156,-11.9302 156,-11.9302 162,-11.9302 168,-17.9302 168,-23.9302 168,-23.9302 168,-74.9302 168,-74.9302 168,-80.9302 162,-86.9302 156,-86.9302 156,-86.9302 20,-86.9302 20,-86.9302 14,-86.9302 8,-80.9302 8,-74.9302 8,-74.9302 8,-23.9302 8,-23.9302 8,-17.9302 14,-11.9302 20,-11.9302"/>
<text text-anchor="middle" x="88" y="-71.7302" font-family="Times,serif" font-size="14.00" fill="#000000">block1</text>
</a>
</g>
</g>
<g id="clust2" class="cluster">
<title>cluster_na2d682a702cd43a2b0e999d93e08f7ea</title>
<g id="a_clust2"><a xlink:title="Sequential(layers=[Conv2d(name=&#39;conv1&#39;, n_filters=8), Conv2d(name=&#39;conv2&#39;, n_filters=2), Linear(name=&#39;lin&#39;, n_filters=1)], name=&#39;block2&#39;)">
<path fill="#555555" fill-opacity="0.133333" stroke="#000000" d="M200,-11.9302C200,-11.9302 426,-11.9302 426,-11.9302 432,-11.9302 438,-17.9302 438,-23.9302 438,-23.9302 438,-74.9302 438,-74.9302 438,-80.9302 432,-86.9302 426,-86.9302 426,-86.9302 200,-86.9302 200,-86.9302 194,-86.9302 188,-80.9302 188,-74.9302 188,-74.9302 188,-23.9302 188,-23.9302 188,-17.9302 194,-11.9302 200,-11.9302"/>
<text text-anchor="middle" x="313" y="-71.7302" font-family="Times,serif" font-size="14.00" fill="#000000">block2</text>
</a>
</g>
</g>
<!-- nb1cb46272877417293575c4da4148f82 -->
<g id="node1" class="node">
<title>nb1cb46272877417293575c4da4148f82</title>
<g id="a_node1"><a xlink:title="Conv2d(name=&#39;conv&#39;, n_filters=5)">
<path fill="#ffc0cb" stroke="#000000" d="M58,-55.9302C58,-55.9302 28,-55.9302 28,-55.9302 22,-55.9302 16,-49.9302 16,-43.9302 16,-43.9302 16,-31.9302 16,-31.9302 16,-25.9302 22,-19.9302 28,-19.9302 28,-19.9302 58,-19.9302 58,-19.9302 64,-19.9302 70,-25.9302 70,-31.9302 70,-31.9302 70,-43.9302 70,-43.9302 70,-49.9302 64,-55.9302 58,-55.9302"/>
<text text-anchor="middle" x="43" y="-34.2302" font-family="Times,serif" font-size="14.00" fill="#000000">conv</text>
</a>
</g>
</g>
<!-- n5a52a7e54ee44f949e92c4498bbd1f4f -->
<g id="node2" class="node">
<title>n5a52a7e54ee44f949e92c4498bbd1f4f</title>
<g id="a_node2"><a xlink:title="Linear(name=&#39;lin&#39;, n_filters=3)">
<path fill="#adff2f" stroke="#000000" d="M148,-55.9302C148,-55.9302 118,-55.9302 118,-55.9302 112,-55.9302 106,-49.9302 106,-43.9302 106,-43.9302 106,-31.9302 106,-31.9302 106,-25.9302 112,-19.9302 118,-19.9302 118,-19.9302 148,-19.9302 148,-19.9302 154,-19.9302 160,-25.9302 160,-31.9302 160,-31.9302 160,-43.9302 160,-43.9302 160,-49.9302 154,-55.9302 148,-55.9302"/>
<text text-anchor="middle" x="133" y="-34.2302" font-family="Times,serif" font-size="14.00" fill="#000000">lin</text>
</a>
</g>
</g>
<!-- nb1cb46272877417293575c4da4148f82&#45;&gt;n5a52a7e54ee44f949e92c4498bbd1f4f -->
<g id="edge1" class="edge">
<title>nb1cb46272877417293575c4da4148f82&#45;&gt;n5a52a7e54ee44f949e92c4498bbd1f4f</title>
<path fill="none" stroke="#000000" d="M70.003,-37.9302C78.0277,-37.9302 86.9665,-37.9302 95.5309,-37.9302"/>
<polygon fill="#000000" stroke="#000000" points="95.7051,-41.4303 105.705,-37.9302 95.705,-34.4303 95.7051,-41.4303"/>
</g>
<!-- n94a926340d1e4d8e9e1597f3d08dfbfe -->
<g id="node3" class="node">
<title>n94a926340d1e4d8e9e1597f3d08dfbfe</title>
<g id="a_node3"><a xlink:title="Conv2d(name=&#39;conv1&#39;, n_filters=8)">
<path fill="#ffc0cb" stroke="#000000" d="M238,-55.9302C238,-55.9302 208,-55.9302 208,-55.9302 202,-55.9302 196,-49.9302 196,-43.9302 196,-43.9302 196,-31.9302 196,-31.9302 196,-25.9302 202,-19.9302 208,-19.9302 208,-19.9302 238,-19.9302 238,-19.9302 244,-19.9302 250,-25.9302 250,-31.9302 250,-31.9302 250,-43.9302 250,-43.9302 250,-49.9302 244,-55.9302 238,-55.9302"/>
<text text-anchor="middle" x="223" y="-34.2302" font-family="Times,serif" font-size="14.00" fill="#000000">conv1</text>
</a>
</g>
</g>
<!-- n5a52a7e54ee44f949e92c4498bbd1f4f&#45;&gt;n94a926340d1e4d8e9e1597f3d08dfbfe -->
<g id="edge4" class="edge">
<title>n5a52a7e54ee44f949e92c4498bbd1f4f&#45;&gt;n94a926340d1e4d8e9e1597f3d08dfbfe</title>
<path fill="none" stroke="#000000" d="M167.9967,-37.9302C173.7458,-37.9302 179.7244,-37.9302 185.5309,-37.9302"/>
<polygon fill="#000000" stroke="#000000" points="178.0001,-41.4306 188,-37.9302 177.9999,-34.4306 178.0001,-41.4306"/>
</g>
<!-- n0f1004cc063b4a22b3133aaf40b3dbc4 -->
<g id="node5" class="node">
<title>n0f1004cc063b4a22b3133aaf40b3dbc4</title>
<g id="a_node5"><a xlink:title="Linear(name=&#39;lin&#39;, n_filters=1)">
<path fill="#adff2f" stroke="#000000" d="M418,-55.9302C418,-55.9302 388,-55.9302 388,-55.9302 382,-55.9302 376,-49.9302 376,-43.9302 376,-43.9302 376,-31.9302 376,-31.9302 376,-25.9302 382,-19.9302 388,-19.9302 388,-19.9302 418,-19.9302 418,-19.9302 424,-19.9302 430,-25.9302 430,-31.9302 430,-31.9302 430,-43.9302 430,-43.9302 430,-49.9302 424,-55.9302 418,-55.9302"/>
<text text-anchor="middle" x="403" y="-34.2302" font-family="Times,serif" font-size="14.00" fill="#000000">lin</text>
</a>
</g>
</g>
<!-- n5a52a7e54ee44f949e92c4498bbd1f4f&#45;&gt;n0f1004cc063b4a22b3133aaf40b3dbc4 -->
<g id="edge5" class="edge">
<title>n5a52a7e54ee44f949e92c4498bbd1f4f&#45;&gt;n0f1004cc063b4a22b3133aaf40b3dbc4</title>
<path fill="none" stroke="#000000" d="M167.9963,-17.8445C174.4609,-14.9839 181.2928,-12.4877 188,-10.9302 253.8046,4.3509 273.8241,2.6529 340,-10.9302 348.8927,-12.7555 358.0801,-15.8907 366.5968,-19.3929"/>
<polygon fill="#000000" stroke="#000000" points="365.3116,-22.6509 375.876,-23.4528 368.1175,-16.2378 365.3116,-22.6509"/>
</g>
<!-- n5708097e14ec495baa2c9ef0735617b0 -->
<g id="node4" class="node">
<title>n5708097e14ec495baa2c9ef0735617b0</title>
<g id="a_node4"><a xlink:title="Conv2d(name=&#39;conv2&#39;, n_filters=2)">
<path fill="#ffc0cb" stroke="#000000" d="M328,-55.9302C328,-55.9302 298,-55.9302 298,-55.9302 292,-55.9302 286,-49.9302 286,-43.9302 286,-43.9302 286,-31.9302 286,-31.9302 286,-25.9302 292,-19.9302 298,-19.9302 298,-19.9302 328,-19.9302 328,-19.9302 334,-19.9302 340,-25.9302 340,-31.9302 340,-31.9302 340,-43.9302 340,-43.9302 340,-49.9302 334,-55.9302 328,-55.9302"/>
<text text-anchor="middle" x="313" y="-34.2302" font-family="Times,serif" font-size="14.00" fill="#000000">conv2</text>
</a>
</g>
</g>
<!-- n94a926340d1e4d8e9e1597f3d08dfbfe&#45;&gt;n5708097e14ec495baa2c9ef0735617b0 -->
<g id="edge2" class="edge">
<title>n94a926340d1e4d8e9e1597f3d08dfbfe&#45;&gt;n5708097e14ec495baa2c9ef0735617b0</title>
<path fill="none" stroke="#000000" d="M250.003,-37.9302C258.0277,-37.9302 266.9665,-37.9302 275.5309,-37.9302"/>
<polygon fill="#000000" stroke="#000000" points="275.7051,-41.4303 285.705,-37.9302 275.705,-34.4303 275.7051,-41.4303"/>
</g>
<!-- n5708097e14ec495baa2c9ef0735617b0&#45;&gt;n0f1004cc063b4a22b3133aaf40b3dbc4 -->
<g id="edge3" class="edge">
<title>n5708097e14ec495baa2c9ef0735617b0&#45;&gt;n0f1004cc063b4a22b3133aaf40b3dbc4</title>
<path fill="none" stroke="#000000" d="M340.003,-37.9302C348.0277,-37.9302 356.9665,-37.9302 365.5309,-37.9302"/>
<polygon fill="#000000" stroke="#000000" points="365.7051,-41.4303 375.705,-37.9302 365.705,-34.4303 365.7051,-41.4303"/>
</g>
</g>
</svg>
